<?xml version="1.0" encoding="utf-8"?>
<!-- Generator: Adobe Illustrator 23.0.2, SVG Export Plug-In . SVG Version: 6.00 Build 0)  -->
<svg version="1.1" id="Layer_1" xmlns="http://www.w3.org/2000/svg" xmlns:xlink="http://www.w3.org/1999/xlink" x="0px" y="0px"
	 viewBox="0 0 390.4 388.9" style="enable-background:new 0 0 390.4 388.9;" xml:space="preserve">
<style type="text/css">
	.st0{fill:#C9C2BC;}
	.st1{fill:#2D1E1C;}
	.st2{fill:#A79D90;}
	.st3{fill:#E4E3DE;}
	.st4{fill:#B37567;}
	.st5{fill:#729395;}
	.st6{fill:#366982;}
	.st7{fill:#428EC3;}
	.st8{fill:#2196D8;}
	.st9{fill:#307469;}
	.st10{fill:#823331;}
	.st11{fill:#41799F;}
	.st12{fill:#2279AC;}
</style>
<g>
	<path class="st0" d="M2.9,318c0-83.8,0-167.5,0-251.3c0-11-6.6-53.2,0-61.4c5.1-6.4,27.3-3,36.3-3c2.4,0,40.4-0.6,27.2,12.8
		C62,19.6,42.2-4.3,37.1,8.2c0.8-2,3.1,25.2,1.8,23.5c6.1,8.4,12.3,1.2,18.1-0.2c5.3-1.3,2.1-4.4,9.4-4c2.6,0.1,1.6,7.1,6.3,7
		c-1.1,0,25.2-9.7,22.8-5.1c3-5.6-37.4,3.4-26.1-14.8C77,2.4,87.3,16,92.9,13.5c14.5-6.5-3.8-8.7,18-11.2c32.4-3.7,67.5,0,100.2,0
		c17.6,0,35.1,0,52.7,0c28.3,0,7,6.7,18,12.4c3.6,1.9,11-4.3,13.9-4.5c-0.3,0,16.4,0.6,12.8,2.7c3.9-2.2-13.1-17.6,6.7-9.2
		c7.5,3.2,3.6,7.8,7.7,12.5c3,3.5,6.6,10.5,14.6,9.3c18.6-2.9,0.9-9.3,0.3-13.5c-0.6-4.4-5.8-4.2-1.1-9.7c0.9-1.1,21.7-1.8,23.4-1.9
		c10.9-0.6,21.4-2.1,27.7,8.2c5.9,9.6-0.2,29.8-0.7,40.2c-0.9,19.7-0.2,39.6-0.2,59.3c0,38.9,0,77.7,0,116.5c0,20.4,0,40.7,0,61.1
		c0,12.6,5.4,41.4-5.7,48.5c-8.5,5.5-67.3-7.7-69.1-14.6c-1.3-5,4.9-9.6,7.3-13c2.2-0.3,4.3-1,6.2-2c4-0.6,5-3.2,2.9-7.8
		c0.6-1,0.9-5.1,2.4-7.4c-4.3,6.9-9.5,12.1-19.2,10.8c-24.4-3.3,0.3-4.4,1.8-7.6c3.4-7.5-19.9-7,1.5-15.8
		c-20.4,7.1-19.6-29.4-17.8-40.5c0.9-5.9,1.4-11.8,2.4-17.7c0.7-4.4,0.7-11.9,2.7-16.2c6.9-14.7-4.3-2.1,11.3-8.7
		c14.9-6.3,63.2-26.5,64.3-46.9c1-18.1-52.8-26.6-54.5-17.1c-0.4,2.1-3.7,21.6-13.5,18.7c-3.7-3.8,6.9-11,3.3-13.8
		c-5.7-4.5-18.9,9.7-22.6,10.7c-5.9,1.6-24.6-8.8-16.5-13c-3.2,1.7-19.2-15.3-19.2-15.1c-3.2-18.6,15-7.2,19.1-13.9
		c1.3-2.1,0-7.4,0.2-9.6c0.6-8.7-4.9-4,1.3-13.9c5.4-8.6,15.6-18,21.6-10.5c5.5,6.9,1.8,7.7-1.2,14.3c5.8,1.1,13.7-5.6,19.4-3.4
		c1.4,0.6,7.6,8.4,6.5,8.4c5.5-0.1,22.9-5.5,16.6-13.9c-7-9.4-18.2,5.9-27.2-0.1c-16.2-10.7,12.1-10,13.7-12.6
		c2.3-3.5-6.6-5.9-6.1-8.7c0.4-2,6.4-10.2,6.2-11.1c0.6,1.9-16.6-12-13.6-12.7c-1.4,0.3-6.2,9.4-9.5,10.9
		c-4.4,1.9-17.7-6.8-22.7,0.4c-7.5,10.8,13.5,13,13.9,22.1c0.1,3.5-16.4,12.8-20.1,12.4c-7.7-0.7-9-6.3-10.2-14.9
		c2-1.4,3.4-1.2,4.1,0.6c-1.3-4.8-3.8-9.3-4.9-14c-0.6-2.8,4.7-4.5,5-7.4c-12.1,3.6,2.1,15.8-3.5,19.3c3.1-0.2-24.3-29-20.4-12.9
		c2.3,9.5,10.9,1.6,14.6,5.9c2.3,2.7,6.3,15.8,4.4,19c-8.3,14-12.5-4-20.6-4.2c-11.6-0.3-6.7,1-6.4,9.6c0.4,9.1,12.9,0.1,4.3,11.6
		c0.6-0.7,14.6,10.8,8.9,16.8c-2.1,2.3-25.6-11.5-31-13.1c-29.2-8.5-50.9-5-77.3,8c-5.6,2.7,2.1,9.1-6.9,5.8
		c-2-0.7-4.1-8.6-5.2-10.5c-3.3-5.7-9.5-16.8-7.8-23.8c0,0.2,10.9-8.2,12.7-10.3c2.5-2.9,10-13.7,7.7-17.6c-5.8-9.5-9.1,9.1-9.2,9.3
		c-1,2.5,2.6,13.4-5.5,12.9c-8.6-0.5-4.4-8.8-6.6-12.5c-0.8-1.4-6.7-11-8-11.4c-4.5-1.6-23.9,6.7-24.4,13c-1,13.1,19.8-2.1,27.1,2.4
		c1.7,1.1,6.2,8.8,6,10.8c-1.1,12.4-16,6.9-18.4,9.1c-2,1.8,9.1,8.3,9.8,9.2c4.5,5.9,2.8,8.5,6.6,15.3c6.7,12.2,12,14.2,6.1,26.4
		c-4,8.2-13.7,18.9-23.1,19.2c-12.1,0.4-29.3-11.7-42.9-12.6c-11.6-0.8-34.4-0.9-42.4,9.3c-10.6,13.6,17.5,31,27.3,38.8
		c6.3,5,12.8,10.8,20.2,13.9c2.8,1.2,16.9,2.1,19.1,5c4.1,5.5-0.1,22.9-5.5,24.9c1.6-0.6-14,31-14,31.7c-0.2,8.7,7.1,16.1,7.2,24
		c0.1,3.3-7.4,20.3-5.4,23c7.1,9.8,15.6-1.6,19.6,13.1c5.5,20.5-18.8,21.8-33,20.3c-5-0.5-5.5-5.7-8.8-6.4c-3.7-0.7-8,0.3-11.8-0.3
		C16.9,329.8,13.4,329.4,2.9,318z"/>
	<path class="st1" d="M302.8,195c8.7,20.3-15.2,52.1-8.3,74.9c1.3,4.4,8.9,10.6,9.3,14.5c0.8,8.9-5.5,3.9-6,10.4
		c-1.4,20.1,14.2-0.1,21.5,12.6c-5,7.3-24,2.7-25.1,5.2s6.2,5.3,4.1,8.2c-3.5,4.8-3.6,8.3-9.8,12.2c-9.8,6.3-23-0.1-31.3,5.2
		c-4,2.6-13.9,21.1-17,28.7c-2.5,6.1-2.3,15.1-7.9,19.2c-6.6,4.8-45.9,0.9-53.8,0c-15.2-1.8-15.1-4.3-21.8-16.4
		c-1.6-2.8-10.9-19.7-12.1-19.9c-5.3-0.7-0.8,13.3-6.5,12.5c-5.2-3.5-0.9-7.6-8-10.8c-9.5-4.2-21.1,4.2-31.8-1.2
		c-6.4-3.2-19.9-18.8-16.6-25.3c1.1,1.3,1.6-8.3,0.7-9.6c-3.1-4.8-8.5-2.9-10.9-6.1c-3.3-4.4-7.1-5.9-5.6-14.1
		c1.8-9.8,3.3-0.9,7.5-9.5c7.6-15.3,1.8-24.5,2.3-39.7c0.4-10.6,10.1-20-5.8-17.9c16.2-6.7,4.5-19.3,14.4-28.1
		c1.3-1.1,23.8-7.4,24.8-6.9c8,3.4,3.7,11.3,3.3,20.2c-0.5,9.4-2.2,19.1-1.4,28.5c0.8,9.5,6.6,19.8,5,29.3c-3.8,23.2-5-4.8-16.7-1.5
		c0.3,12.4,10.8,12.9,16.5,20.5c4.2,5.7,5.5,14.3,10.1,20.2c10.3,13.2,19.4,28.5,29.7,40.8c29.2,34.7,64.4,2,86.4-17.7
		c20.3-18.2,23.2-41.6,27.4-66.2c2-11.6,9.8-37.8-0.3-48.2c-11.9-12.2-32,3.6-42.8-0.8c-7.8-3.1-9.1-12.6-1.3-17.3
		c3.8-2.3,18.7,3.6,19.2,3.1c9.5-9.4-19.3-14.6-20.8-15.5c-7.6-4.5-12.8-17-19.3-25.2c-13.9-17.5-37.7-48.2-65.4-34.7
		c-9.7,4.7-11.1,20.9-18.6,26.1c-10.7,7.3-15.5,1-9-11.8c8.5-16.5,14.9-21.6,26.6-31.3c-1.1,0.9,0.2-10.3,1.2-11.8
		c4.5-6.8,9.9-9.3,17.3-11.8c14-4.7,30.4-3.8,44.5-1.1c13.3,2.6,31.2,7.5,41.3,17.5c4.9,4.8,6.6,15.6,12.2,19.5
		c3.9,2.7,4-7.5,15.6,3.3c5.3,4.9,6.5,4.9,8.8,8.3c-4.3-6.4,1.9,12.1,2,7.8c-0.1,5.5-3.1,7.6-4.2,12.1c-1.8,7.3-2.5,9.1-1.2,17.4
		c1.5,9.9-0.3,11.7,9.3,17.5C289,192.8,300.4,190.9,302.8,195z"/>
	<path class="st2" d="M251.6,351.7c-3.8-18.8,8.7-14.2,20.6-15.3c12.2-1.1,34.5-10.8,18.3-23.3c-2.1-1.6,26-3.5,27.4-3.5
		c-8.9,14.7,2.1,11.7,12.1,13.8c18.8,3.9,37.4,14.7,56.9,6.5c0,8.7,5.1,48.4,0.1,53.6c-5.6,5.8-25.4,2.6-34.1,2.6
		c-22.9,0-73.5,9.6-91.8-7.2c1.2,2.2,1.3,4.5,0.5,7.1C251.3,386.3,242.7,357.9,251.6,351.7z"/>
	<path class="st2" d="M83.3,327.6c3.5,9.5,9,19.3,19.1,22.8c9.4,3.2,19.2-4.7,27.6-1.9c7.6,2.5,10.4,9.9,10.8,17.8
		c0.7,15.4-4.8,18.7-18.6,19.9c-31.2,2.7-63.8,0-95.1,0c-19.3,0-23.8,5.5-24.1-13.9c-0.4-18.1,0-36.3,0-54.4
		c7.7,5.9,12.1,10.9,22,12.5c4.5-0.1,9.1-0.2,13.6-0.4c3.3-1.4,5.7-0.1,7.4,3.9C60.9,335.7,73.8,339.4,83.3,327.6z"/>
	<path class="st3" d="M98.8,5c4.4,8.5-2.1,8.5-9.7,12.8c1.7-10.8-23-7.5-19.4,3c5.1,14.8,23.6-8.2,28.1,11.5
		c-15.8-4.7-14,5.8-26.3,4.6c-2.8-0.3-11.3-9.6-13.7-12.4c-0.8-0.9-6.5,0.6-7.1-1.1c-2.2-7,5.1-6.2,6.7-9.4c0.3-0.5,7.2-3.4,8.2-4.1
		c0.6-0.5-5.4-5.6-2.9-7.6C68.3,2.3,94.2-1.2,98.8,5z"/>
	<path class="st4" d="M132.6,386.3c7.8-10.9,7-27.1,11-39.9c7.1,2.3,20.3,33.5,24.3,39.9C156.1,386.3,144.4,386.3,132.6,386.3z"/>
	<path class="st5" d="M336.6,2.3c-6.1,10.1,10.3,9.4,11,13.9c2.3,13.8-19.6,11.9-25.8,5c-3.2-3.6-2.4-6.3-3.3-10.4
		c-0.4-2.1-7.7-3.9-4.5-8.4C315.5,0.2,334.4,2.3,336.6,2.3z"/>
	<path class="st4" d="M251.6,351.7c1.3,11.5,2.6,23,4,34.5c-7.8,0-15.5,0-23.3,0C233.3,381,242.8,344.1,251.6,351.7z"/>
	<path class="st5" d="M301.2,9.4c-5.1-1-22,14.2-22.2-0.8c-0.1-7,19.3-6.3,27.7-6.3C306.1,5.3,304.3,7.7,301.2,9.4z"/>
	<path class="st1" d="M261.6,386.3c-1.8-3.8-3.5-7.6-5.3-11.4c7.8,3.8,15.5,7.6,23.3,11.4C273.6,386.3,267.6,386.3,261.6,386.3z"/>
	<path class="st5" d="M98.8,5c-4.1-1.3-8.6,3.9-10.5-2.7C92.4,2.3,101.7-0.2,98.8,5z"/>
	<path class="st6" d="M302.1,2.3c-2.1,3.4-4.9,4.6-8.4,3.7C292.4,2.2,301.3,2.3,302.1,2.3z"/>
	<path class="st7" d="M294.5,5.2c-4.3,0.5-2.6,1.7-6.7-3C288.2,2.3,297.5,2.8,294.5,5.2z"/>
	<path class="st8" d="M294.7,3.9c-1.3-0.5-2.5-1.1-3.8-1.6C311.5,2.3,293.5,3.1,294.7,3.9z"/>
	<path class="st4" d="M244.6,214.2c15.3,2.5,24.9-0.5,28.5,15.9c3.3,14.9,0.7,37.5-1.8,52.6c-5.1,30.3-38.1,75.7-68.7,83.5
		c-40.1,10.2-62.2-32.4-80.4-60.5c-5.9-9.1-20.2-18.8-23.1-28.8c-5-17.1,10.3-1.3,14.8,3.4c2.1-11.1-2.7-24.4-3.5-35.8
		c-0.9-14.1,0.8-27.8,0.8-41.8c0.1-16.8-1.9-25.2-15.7-37.4c-3.7-3.3-38.9-28.6-38.2-31.6c18-3.2,36.4,8.4,49.3,15.9
		c12.5,7.4,7.4,6.6,16.2-5.5c21.9-30.1,52.3-13.9,74.8,7.5c3.8,10,14.8,15,17.8,25.7c4.1,15.3-7.5,8.2,8.1,12.8
		c14.3,4.2,21.7,3.3,6.5,11.5c1.3-0.7-24.9,6.5-17.7,11.5c2.6,1.8,5.4-4.7,8.9-3.7c3.2,0.9,4.3,6.6,9.1,7.7
		C237.5,218.8,237.7,210.5,244.6,214.2z"/>
	<path class="st3" d="M331.7,126c11.2-2.9,35.5-0.1,43.6,9.6c10.2,12.3-1.2,19.6-10.9,28.5c-17.3,15.9-42.4,38.1-67.9,29
		c-0.3-0.1-14-9.1-14-9.1c0.1-10,22.8-3.1,28.2-4.8c17.1-5.3,23.7-39.2,43.3-38.3c-18.5-2.1-27.9-0.3-37.9,11.4
		c-1.4,1.7-2.8,5.5-5,7.8c-4.7,5-24.7,22-28.7,14.6c-4-7.2,16.3-21.2,19.6-23.5C311.7,144.5,321.8,130.3,331.7,126z"/>
	<path class="st3" d="M60,135.6c10.1,5.6,12,9.7,19.5,16.4c6.3,5.7,43.8,32,15.5,25.9c-13.7-3-17.4-16.2-23.5-22.2
		c-4.4-4.3-11.8-9.5-18-10.6c-1.9-0.4-26.4,1.6-24.8,6.6c0.7,2.2,19.6,1.4,13.6-0.3c9.7,2.9,7.3,4.7,13.1,11.7
		c7.5,9.1,10.7,19.9,24,21.9c7.2,1.1,35.4-8.6,24.3,7.5c-3,4.3-15.1,7.9-19.7,8.6c-24,3.8-49.6-20-64.5-36.4
		C-4.5,138.2,39.2,126.6,60,135.6z"/>
	<path class="st3" d="M287.8,39.2c-0.3-13.2,17.4,9.1,15.9-7.5c4.2,0.9,22.6,7.3,23.8,10c1.1,2.6-8.1,6.3-7.4,9
		c0.4,1.6,8.3,7.8,7.5,10.3c0.7-2.2-25.9,10.9-18.7,11.6c2.7,0.3,3.7-2.3,5.9,0.1c-11.5,6.2-15.2,6.9-18.6-7.3
		c-8.8,2.3-21.4,22.5-28.1,19.8c-9-3.6,20.6-21.3,23.3-22.6c-14.8-20.1,14.7,4.1,21.2-8.4C317.1,45.4,290.8,56.9,287.8,39.2z"/>
	<path class="st2" d="M319.4,307.5c-5.2-0.4-22.3,1.5-25.3-3.5c-5.4-9,8.9-12.2,8.9-16c0-8-10.5-14.8-10.8-25
		c-0.3-10.6,3.4-22.4,5.5-32.7c-0.4,12.1-2.9,22.8,2.7,34.2c7.1,14.3,7.1,6.2,19.2,11.5c-4,2.8-8.1,5.4-12.2,8.1
		c3.3,3.2,6.8,6.1,10.5,8.7c-4.9,3-10.2,4.2-16.1,3.6c16,3.4,20.7-0.4,31.3-11.1C330.6,295.4,333.4,308.8,319.4,307.5z"/>
	<path class="st2" d="M77,227.1c11-0.3,2,5,2.7,8.8c1.6,8.9,2.5,27.9,0.7,37c-2.2,11-25.7,28.2-6.3,36.9c-5.8,0.5-10.3-1.6-13.6-6.3
		c7.9-5.1,4.8-12.8,10-24.5c-7.9-9.7-10.5-18.5-6.3-29.9C65.5,245.2,79.2,230.9,77,227.1z"/>
	<path class="st4" d="M306.6,149.2c-6,5.2-34.7,38.9-34.9,13.7c-0.1-17,31.6-28.3,44.2-33C316.1,138.4,312.2,144.2,306.6,149.2z"/>
	<path class="st2" d="M136.2,106.4c2.1,1.4,3.9,3.2,5.3,5.3c-1.5-4.7-10,8.6-9.4,8.3c-6.5,3.2,0.7,6.7-8.1,2.1
		c-4.7-2.5-6.8-20.8-8.5-25.9c-4.4-13.4-4.7-14.4,1-27.9C123.2,70.6,132,99,136.2,106.4z"/>
	<path class="st5" d="M60.5,13.5c-4.4,1.3-7.4,4.2-8.9,8.6C62.2,23,65.8,30,54.2,35.8c-13.8,6.9-14.2-4.5-15.8-12
		c0.3,1.4-2.7-17.5-4-14.7C39.5-1.9,56.5,6.4,60.5,13.5z"/>
	<path class="st5" d="M113.1,55.9c-2.4,0.4-5.5-1.1-7.8-0.5c-3.1,0.8-4.2,5.4-5.7,5.7c-4.3,1-9.8,7.3-13.8-2.2
		c-6.2-14.5,22.4-13,24.7-22.7c0.7,1.3,9.6,14.4,8.6,16.7C118.2,55,115.8,59.4,113.1,55.9z"/>
	<path class="st3" d="M249.8,73.6c1.6-3.7,14.7,0.2,14,5.6c-1,7.5-15.6,4.9-14.5,8c1.8,5.4,13.5-7.8,16.5,1.8
		c2.3,7.3-4.8,3.7-8.4,5.8c-3,1.8-4.4,5.9-8.1,5.9c-6.7,0.1-1.6-14.6-13.1-8.3c-1.4-3.1,4.1-7.5,6.5-9.5
		C232.7,75.9,244.2,75.4,249.8,73.6z"/>
	<path class="st3" d="M86.7,80.2c-6.6,1.6-13,3.6-19.5,4.4c-3.1,0.4-24.6,0.9-12.3-9.2c12.9,7.9,20-3.8,2.1-2.4
		c0.2-3.9,0.3-7.9,0.5-11.8c4.1,1.8,13,0.5,14.1,1.2C72.6,63,86.5,80.4,86.7,80.2z"/>
	<path class="st5" d="M322.7,73.6c24.7-16.1,20.7,22.7,2.4,17.3C315.5,88.1,319.1,80.8,322.7,73.6z"/>
	<path class="st5" d="M54.9,75.4c0.7,7.1,2.9,12.3-3.1,16.8c-3.8,2.9-5.6-3.2-5.1-3.6C31.4,99.4,44.2,74.5,35,78.7
		C31.5,64.9,52.6,74.5,54.9,75.4z"/>
	<path class="st5" d="M99,89.8c19.7-3.7-4.3,35.5-16.1,17C79.9,102.1,97.8,89.3,99,89.8z"/>
	<path class="st5" d="M293.8,53.3c-6.4,1.5-23.6,0-18.8-12.5C280.5,26.5,298.7,53.3,293.8,53.3z"/>
	<path class="st2" d="M258.5,84.5c3-8.5,3-8.6,1.3-18.2c-0.9-4.9-7.2-16.5-3.5-20.5c4.5,1.2,10.5,21.6,11.4,25.5
		c0.9,4.2,4.9,15-2.1,16.2C264.3,87.7,258.8,85.8,258.5,84.5z"/>
	<path class="st3" d="M113.1,55.9c4.1,0.5,5.9-10.6,8.9-5.8c1.6,2.6-4.1,10.7,2.4,12.9c7.5,2.6,6.9-14.5,13.3-3.5
		c-7.6-0.9-3.7,8.7-8.3,11c-4.7,2.3-6.6-1.3-12,1.9c-1.9-3.2-1.1-5.8,2.3-7.5C115.3,64,107.4,61.6,113.1,55.9z"/>
	<path class="st5" d="M249.8,73.6c-0.7,9.5-11.2-4.5-9.9,7.4c-7.6-1.6-8.2-8.8-9.7-14.9C236.9,65.3,249.9,62,249.8,73.6z"/>
	<path class="st5" d="M254.6,95c2.9-10.9,29,6,18.1,13.4C266.9,112.3,253.5,98.9,254.6,95z"/>
	<path class="st5" d="M136.1,56.7C108.8,54,160.5,22.4,136.1,56.7z"/>
	<path class="st5" d="M256.3,45.8c0.1,18-19.2,1.8-15.4-4.6C244.6,35,253.5,43.1,256.3,45.8z"/>
	<path class="st5" d="M149.5,76.1c-0.3,5.8-9,24.6-14.3,12.7C132.1,81.8,143.4,72.1,149.5,76.1z"/>
	<path class="st4" d="M253.1,96.7c6.3,8.9,8.6,18.8,1.8,29.1c0,0-10-14.9-9.9-13.6C244.7,107.9,253.8,98.8,253.1,96.7z"/>
	<path class="st2" d="M99,89.8c-8.3,6.3-27.7-2.4-36.1-4.4C71,83.7,93.8,78.7,99,89.8z"/>
	<path class="st4" d="M71.8,63.7c-4.9-6.6-6.6-15.2-2.2-23.2C69.5,40.5,98.3,78.5,71.8,63.7z"/>
	<path class="st2" d="M251.5,98.5c0.1,5.7-2,10.2-6.5,13.7c-6.5-12.3-19.6-17.3-32-21.5c12.2,0.1,23.9,7.4,33.5,14.3
		C246.8,101.7,248.4,99.5,251.5,98.5z"/>
	<path class="st2" d="M71.8,63.7c7.4-2.9,15.9,10.8,14.8,16.5C79.1,77.5,74,71.4,71.8,63.7z"/>
	<path class="st3" d="M112.4,77.9c0.3,4,0.6,8,0.9,12c-7.1-4.5-11.3-8.3-15-15.8C102.8,76.1,107.5,77.4,112.4,77.9z"/>
	<path class="st9" d="M88.3,91.5c3.1-2.1,6.4-2.5,9.8-1c-1.6,7.8-9.2,9-15.1,12.2C83,98.1,84.8,94.4,88.3,91.5z"/>
	<path class="st2" d="M69.6,40.5c0.5,7.4-2.8,15.5,1.6,22.4c-9.8,1.4-6.4-19-5.6-23.9C66.9,39.5,68.3,40,69.6,40.5z"/>
	<path class="st4" d="M76.2,23.5C62.7,3.9,98.9,25.2,76.2,23.5z"/>
	<path class="st2" d="M106.4,152.1c-3.6-10.9,4.6-12.2,12.4-17.2C114.7,140.6,110.6,146.4,106.4,152.1z"/>
	<path class="st9" d="M275.3,102.7C253.6,82.2,275.6,85.8,275.3,102.7z"/>
	<path class="st4" d="M299.8,76.4c5.9,0,12.4-1.7,18.2-0.9c2.7,4.9-18.9,9.9-20.6,7.8C295.4,80.7,299.9,78.4,299.8,76.4z"/>
	<path class="st2" d="M317.2,39c-3.3,1-8.2-7.8-9.7-10.2c-0.4-0.7,6.4-2.4,8.2,0.4C317.6,32.2,316.5,35.7,317.2,39z"/>
	<path class="st2" d="M301.2,9.4c0.1-3.4,1.8-5.3,5.1-5.9c1.7,4,3.5,8,5.2,12C305.3,18.2,306.5,8.7,301.2,9.4z"/>
	<path class="st3" d="M82.2,65.4c-1.6-3.2-10.4-13.2-6.1-17.3C80.5,49.1,87.8,64,82.2,65.4z"/>
	<path class="st2" d="M307.2,82.2c0.6-0.4,19.6-12.1,17.2-6c-0.3,0.7-4.4,4.2-5,4.9C315.5,81.4,311.1,81.8,307.2,82.2z"/>
	<path class="st3" d="M263.3,59.9c-0.3-4.8-1-9.5-1.5-14.3c0.6-0.3,6.9,18.6,7.6,20.8C267.3,64.3,265.3,62.1,263.3,59.9z"/>
	<path class="st2" d="M299.9,77.3c-3.1,6.5,1.7,4.3,5.3,5c-3.5,0.8-11.7,4.1-15,1.8C293.3,81.8,296.6,79.5,299.9,77.3z"/>
	<path class="st4" d="M331.7,126c-2.9,5.9-7.1,7.6-12.6,4.9C321.5,125.6,326.9,126.1,331.7,126z"/>
	<path class="st5" d="M262.3,45.9c-1-0.5,4.8-10.9,4.9-11.3C271.3,38.1,267.4,45,262.3,45.9z"/>
	<path class="st5" d="M275.5,98.4c-5.2-6.1-11.1-8.4-13.6-12.1C269,85.6,278.1,87.7,275.5,98.4z"/>
	<path class="st2" d="M76.1,48.1c1.9,5.4,3.7,10.9,5.6,16.3C78.2,61.9,69.7,49.6,76.1,48.1z"/>
	<path class="st2" d="M296.2,65.4c1.8,2.8,5.9,5.4,0.7,8.8C296.6,71.3,296.4,68.4,296.2,65.4z"/>
	<path class="st2" d="M298.2,225.8c0.8-3,1.7-6,2.5-9C299.9,219.8,299,222.8,298.2,225.8z"/>
	<path class="st1" d="M319.3,307.6c0.2-3.4,2-4.5,5.5-3.4C323.6,306.3,321.7,307.5,319.3,307.6z"/>
	<path class="st2" d="M259.3,104.2c-0.9-2.9,7-3.3,5.2,2.3C262.7,105.7,261,105,259.3,104.2z"/>
	<path class="st4" d="M262.9,121.6c-3.7,0-4.8-1.4-3.4-4.2C260.7,118.9,261.8,120.3,262.9,121.6z"/>
	<path class="st2" d="M314.8,75c-1.9,0.3-3.8,0.7-5.7,1C310.8,74.1,312.7,73.7,314.8,75z"/>
	<path class="st3" d="M305.3,25.6c-0.7,2.9-1.4,2.7-1.9-0.4C303.8,23.1,304.4,23.2,305.3,25.6z"/>
	<path class="st2" d="M82.1,325.6c-1.3-0.3-2.6-0.2-4,0.2C78.2,324.1,79.5,324,82.1,325.6z"/>
	<path class="st2" d="M81.5,201.7C85.3,200.8,83.2,207.2,81.5,201.7z"/>
	<path class="st3" d="M61.7,90.7C60.8,88.8,63.8,89.5,61.7,90.7z"/>
	<path class="st2" d="M297.9,227.3c0.2-0.3,0.3-0.6,0.5-0.8C298.2,226.7,298,227,297.9,227.3z"/>
	<path class="st5" d="M275.3,101.9C274.7,101.1,275.6,101.5,275.3,101.9z"/>
	<path class="st10" d="M234.6,201.7c-1.2-0.9-2.3-1.9-3.5-2.8c0,0,8.5-2.2,7.6-3.2c-8.2-8.8-21.3,1.6-27.3-6.9
		c-0.9-1.3,2.7-9.6,2.6-10.2c-1.3-5.2-5.5-9.2-6.4-14.4c9.1,6.2,5.5,15.6,11.1,20.9c4.3,4,13.6,2,19.1,4.9
		C251.7,197.4,250.5,205.7,234.6,201.7z"/>
	<path class="st2" d="M83.9,201c9.9-3.9,38-13.6,11.8-17.2c-1.4-4.1,10.5-6.2,13.3-4.6C127.9,190.8,90.2,199.1,83.9,201z"/>
	<path class="st2" d="M274.3,172.6c1.9-0.3,14.6,4.2,15.4,6.5c0,0.6-9,2.6-7.7,4.3c1.8,2.4,12.9,7.7,11.8,10
		C287.2,192.4,262.4,183.4,274.3,172.6z"/>
	<path class="st10" d="M219.5,209.8c-1.9,4.4-5.1,6-9.7,4.7c-5.7-2.6,11.2-14,15.9-12.9C215.6,219.7,224.5,206.4,219.5,209.8z"/>
	<path class="st0" d="M293.9,193.3c-2.4-2.7-21.9-8.9-9-12.6c-1.3,2,14,12.3,18,14.3C299.8,194.5,296.9,193.9,293.9,193.3z"/>
	<path class="st10" d="M177,133.4c-13.8-3.2-28.5-9-42.2-2.4C142.2,120.8,169.9,124.5,177,133.4z"/>
	<path class="st2" d="M108.3,328.5c-2.7-1.8-5.4-3.6-8.1-5.4c4.7-2.2,13.3-4.8,16.3,2.3C113.8,326.4,111,327.5,108.3,328.5z"/>
	<path class="st10" d="M271.9,220.7c-6.8-0.9-19.8-0.1-25.8-3.5C244.6,216.2,273.6,208.3,271.9,220.7z"/>
	<path class="st2" d="M279.1,309.3c3.6,2.8,7.2,5.6,10.8,8.4C284,322.1,272.4,316.9,279.1,309.3z"/>
	<path class="st10" d="M110,276.2c-8.2,4.5-5.8-7.5-11.7-7.6C102.8,263.2,111.1,269.9,110,276.2z"/>
	<path class="st2" d="M246.5,114.1c3.5-11.3,8.3,11.1,8.4,11.7C252.1,121.9,249.3,118,246.5,114.1z"/>
	<path class="st10" d="M272,258.6c0.4-9.5,0.7-19,1.1-28.5C273.4,235.6,277.6,258.3,272,258.6z"/>
	<path class="st10" d="M197.7,151.7c-8.1-1.6-9.6-10.6-15.9-14.2C189.9,139.1,194.2,144.9,197.7,151.7z"/>
	<path class="st10" d="M202.9,159.8c-3.5-1.6-5.3-4.3-5.2-8.2C205.9,156,207.6,158.7,202.9,159.8z"/>
	<path class="st10" d="M244.6,214.2c-1.1-0.6-2.1-1.3-3.2-1.9C242.5,212.9,243.5,213.6,244.6,214.2z"/>
	<path class="st3" d="M293.1,8.5c-2.5,3.9-4.2,4.1-5.2,0.4C289.4,6.9,291.1,6.8,293.1,8.5z"/>
	<path class="st11" d="M291.1,5.9c2-0.9,3.9-0.8,5.8,0.2C295,6.1,293,6,291.1,5.9z"/>
	<path class="st12" d="M294.7,3.9C299,3.5,294.4,6.1,294.7,3.9z"/>
	<path class="st0" d="M188.4,188.1c-10.5-6.3-21.6-11-33.9-11.8c-4-0.3-17.1,3.8-20.8-0.1c-5.3-5.7-1-28.1,4.8-32.9
		C161.9,123.9,208.5,177.4,188.4,188.1z"/>
	<path class="st0" d="M197.9,224.9c3.3,18.2,3,16.3-14.7,18.9c3.8-10.2,3.5-16.7,2.9-27.3c-0.3-4.2-5.1-12.5-1-16.1
		C199.5,188.4,197.9,219.9,197.9,224.9z"/>
	<path class="st0" d="M173.5,231.3c-6.6,8.5,1.2,20.7-11.8,25c-2.6,0.9-26.9-4.3-26.7-6.4C135.3,243.2,173.1,230.6,173.5,231.3z"/>
	<path class="st10" d="M211.1,259.5c18.9,5.7-8.1,16-15.1,15.5s-17.9-1.3-24.1-3.3c7-8.8,2.7-9.8,15.1-10.9
		C194.3,260.3,206.2,265.5,211.1,259.5z"/>
	<path class="st10" d="M222,297.9c-21.7,0.8-53.2,5.9-73.1-4.2c7.5-7.7,33.4,3,44.2,3.1c14.4,0.1,40.4-17.4,46.3-2.1
		C233.7,296.3,227.9,297.4,222,297.9z"/>
	<path class="st1" d="M158.9,210.8c-6.3,13.5-8.2,7.1-17.2,6.5c-5.4-0.4-3.4-0.8-10.8,0.2c-2.6,0.4,8.3-9.2,11.6-10
		C144.5,207,161.7,207.3,158.9,210.8z"/>
	<path class="st10" d="M157.9,187c-7.7-1.9-17.3-4.1-25.1-1.1c-6,2.3-10.9,12-15.3,13.1c-2.3-11.2,9-16.8,17.5-18.8
		C139.8,179,168.8,182.2,157.9,187z"/>
	<path class="st0" d="M220.2,255.6c3.4-0.6-2.3-20.3,10.1-13.2C240,248,224.9,255.1,220.2,255.6z"/>
	<path class="st1" d="M204,248.9c-6.7,14.8-19.3,1.5-19.2,1.4C186,249.6,204.3,249.3,204,248.9z"/>
	<path class="st10" d="M158.9,210.8c-0.2-5.6,3.6-1.2-3.2-8.2c3.6,0.7,14,3.3,14.1,8C170.2,218.8,162.7,211.3,158.9,210.8z"/>
	<path class="st0" d="M109,179.2c-6.9-1.8-24-21.4-29.5-27.1C91.5,158.4,101.9,167.7,109,179.2z"/>
	<path class="st0" d="M243.1,242.1c11.8,0,1.1,6.7,1.3,8.1C244.8,252.7,231.4,240.6,243.1,242.1z"/>
	<path class="st10" d="M204,248.9c-6.6,1.3-13.2,2.7-19.8,4c0.6-10.7,3.8-2.1,10.2-3C197.4,249.6,201.9,241,204,248.9z"/>
	<path class="st3" d="M261,239.1c0.4,8.4-5.4,4.4-9.1,1.7C258,235.8,256.5,236,261,239.1z"/>
	<path class="st1" d="M211.1,259.5c-2.2,6.2-5.6,6.4-11.4,2.2C202.9,257.9,206.7,257.2,211.1,259.5z"/>
	<path class="st3" d="M133.7,243.9C121.5,249.3,123.8,237.1,133.7,243.9z"/>
	<path class="st1" d="M187,260.9c-1.4,7.1-6.7,3-9,0C181,258.7,184,258.7,187,260.9z"/>
	<path class="st3" d="M128.8,253.5c17.6,2.5-1.3-0.9,6.1,4.9C136.4,259.7,119.5,255.2,128.8,253.5z"/>
	<path class="st0" d="M108.6,158.3c3.2,3.3,2.8,6-1,8.1C103.7,162.3,104.7,162.4,108.6,158.3z"/>
	<path class="st0" d="M127.6,258.1c1.4,0.3,2.9,0.6,4.3,1C130,261,128.7,260.3,127.6,258.1z"/>
	<path class="st0" d="M134.9,258.5c0-1.1,0-2.2,0.1-3.3C136.9,256.3,137.3,257.4,134.9,258.5z"/>
	<path class="st0" d="M78,150.5c-0.5-0.9-1.1-1.8-1.6-2.7C76.9,148.7,77.5,149.6,78,150.5z"/>
	<path class="st0" d="M128.8,253.5c-0.6,0.5-1.2,1-1.7,1.5C127.6,254.5,128.2,254,128.8,253.5z"/>
	<path class="st0" d="M72.6,143.2C72.2,141.8,75.9,140.2,72.6,143.2z"/>
	<path class="st0" d="M79.5,152c-0.5-0.5-0.9-1-1.4-1.4C78.6,151.1,79,151.6,79.5,152z"/>
	<path class="st0" d="M60,135.6c-0.6-0.5-1.1-0.9-1.7-1.4C58.9,134.7,59.5,135.2,60,135.6z"/>
	<path class="st0" d="M76.3,147.7c-0.2-0.2-0.4-0.4-0.6-0.6C75.9,147.3,76.1,147.5,76.3,147.7z"/>
	<path class="st0" d="M134.8,254.9c-0.2-0.2-0.4-0.4-0.5-0.5C134.4,254.5,134.6,254.7,134.8,254.9z"/>
	<path class="st0" d="M289.3,180c-0.4-4.6,10-2.4,11.8-3.1c10.5-4.2,11.8-3.7,17.8-15.1c3.6-6.8,5.9-18.8,11.6-22.6
		c6.8-4.5,24.5-2.4,28.8,4.6c-15.8-2.5-20.1,13.3-28.9,22.4C320.3,176.7,304.3,184.7,289.3,180z"/>
	<path class="st4" d="M326.9,140.9c8.3,6.9-12.4,34.4-18.3,37.1c-2.5,1.2-25.1,2.2-25.8-0.8C284.3,186.4,323.9,143,326.9,140.9z"/>
	<path class="st0" d="M283.4,176.1c-0.9,2.3-3,3-6.1,2.2c-0.4-5.4,2.2-8.6,7.6-9.5C284.3,171.2,283.8,173.6,283.4,176.1z"/>
	<path class="st0" d="M339.9,180.7c-1.3,0.5-17,5.4-16.5,4C325.4,179.3,335.5,180.4,339.9,180.7z"/>
	<path class="st0" d="M319.2,147.7c-4.2,7.2-1.9,5.4-7.2,5.1C308.1,152.5,321.4,146.9,319.2,147.7z"/>
	<path class="st0" d="M323.1,143.5c-2.3,4.7-4.4,4.8-6.3,0.4C319,143.8,321.1,143.7,323.1,143.5z"/>
	<path class="st0" d="M284.9,168.7c1.5-1.5,2.9-3,4.4-4.5C287.8,165.7,286.3,167.2,284.9,168.7z"/>
	<path class="st2" d="M289.5,173.6c-1.4,0.6-2.8,1.2-4.1,1.7C286.7,174.7,288.1,174.2,289.5,173.6z"/>
	<path class="st0" d="M306.6,149.2c1-0.5,1.9-1,2.9-1.5C308.5,148.2,307.6,148.7,306.6,149.2z"/>
	<path class="st0" d="M314.9,154.6c-0.5,0.4-1.1,0.8-1.6,1.2C313.8,155.4,314.3,155,314.9,154.6z"/>
	<path class="st0" d="M312.3,156.7c-0.2,0.2-0.3,0.3-0.5,0.5C311.9,157,312.1,156.8,312.3,156.7z"/>
	<path class="st0" d="M308.6,160.4c-0.2,0.2-0.4,0.4-0.6,0.5C308.3,160.8,308.4,160.6,308.6,160.4z"/>
	<path class="st0" d="M309.3,159.7c-0.2,0.2-0.4,0.4-0.5,0.5C309,160.1,309.1,159.9,309.3,159.7z"/>
	<path class="st0" d="M313.1,155.9c-0.2,0.2-0.4,0.4-0.6,0.6C312.7,156.3,312.9,156.1,313.1,155.9z"/>
	<path class="st0" d="M310.1,159c-0.2,0.2-0.4,0.4-0.5,0.5C309.7,159.3,309.9,159.2,310.1,159z"/>
	<path class="st0" d="M315.5,153.9c-0.2,0.2-0.4,0.4-0.6,0.7C315.1,154.3,315.3,154.1,315.5,153.9z"/>
	<path class="st0" d="M310.8,158.2c-0.2,0.2-0.3,0.3-0.5,0.5C310.4,158.5,310.6,158.3,310.8,158.2z"/>
	<path class="st0" d="M311.6,157.5c-0.2,0.2-0.4,0.4-0.5,0.5C311.2,157.8,311.4,157.6,311.6,157.5z"/>
	<path class="st0" d="M83.1,185.7c-18.8,2.5-20.9-14-30.9-24.7c-10.4-11.1-17.3-3.1-27.6-9.7c7.2-4.8,19.4-11,28.4-8.2
		c13.3,4.2,6.9,7.9,12,16.7c2.7,4.8,5.2,14.4,8.9,18.6C75.5,180.5,83,182.9,83.1,185.7z"/>
	<path class="st4" d="M83.1,185.7c-13.4-0.6-10.5-18.6-22-21.6c6.3-5.5-3.5-11.1,0.2-17c4.7,0.3,41.3,41.2,43.6,34.9
		C104,184.3,85.6,185.3,83.1,185.7z"/>
	<path class="st0" d="M106.3,185.3c6.4,4.9-5.5,11.4-10.6,11.1C96.5,189.7,107.2,193.1,106.3,185.3z"/>
	<path class="st0" d="M55.6,186.1c3.5,1.5,7.1,3,10.6,4.5C64.5,191.8,48.8,190.3,55.6,186.1z"/>
	<path class="st0" d="M73.4,158.8c-3.2-5.9-1.2-6.6,6.1-2.1C77.5,157.4,75.4,158.1,73.4,158.8z"/>
	<path class="st0" d="M77.9,162.7c-0.5-0.5-0.9-1-1.4-1.5C76.9,161.7,77.4,162.2,77.9,162.7z"/>
	<path class="st0" d="M75.6,160.9c-0.2-0.1-0.4-0.3-0.6-0.4C75.2,160.6,75.4,160.8,75.6,160.9z"/>
	<path class="st0" d="M63.6,147.8c-0.3-0.2-0.6-0.4-0.9-0.5C62.9,147.4,63.3,147.6,63.6,147.8z"/>
	<path class="st0" d="M74.9,160.3c-0.2-0.2-0.4-0.4-0.6-0.5C74.5,159.9,74.7,160.1,74.9,160.3z"/>
	<path class="st0" d="M293.8,53.3c3.7-6,13,0.2,13.8-10.1c7.1,2.8,9.9,11.7,2.5,15.4c-0.4-0.5-0.1-6-0.5-5.6
		c0.3-0.4-9.1-1.3-6.9,2.7c1.2,2.1,4.4,1.2,5.3,3.3C300.4,65.2,298.2,58,293.8,53.3z"/>
	<path class="st4" d="M307.9,59.1c-12.6-0.1-6-7.2,3.8-8.2C313,56.3,311.8,59,307.9,59.1z"/>
	<path class="st2" d="M308.1,76c-1,0.1-2,0.2-3.1,0.3C306.1,76.2,307.1,76.1,308.1,76z"/>
	<path class="st0" d="M300.7,293.8C301,294.6,299.9,293.8,300.7,293.8z"/>
	<path class="st0" d="M75.6,257.2c0.4,3.2,3.8,14.7-0.1,16.3C73.7,267.7,73.2,263.1,75.6,257.2z"/>
	<path class="st0" d="M69.9,285.3C68.6,286.4,69.4,283.7,69.9,285.3z"/>
	<path class="st0" d="M70.3,279C71.5,279.7,71.4,280,70.3,279z"/>
	<path class="st0" d="M69.9,282.6C69.6,281.9,70.7,282.5,69.9,282.6z"/>
	<path class="st0" d="M75.6,257.3C75.6,257.3,75.6,257.2,75.6,257.3C75.6,257.2,75.6,257.3,75.6,257.3z"/>
	<path class="st0" d="M276.9,156.5c3.4-1.6,6.4-0.7,9,2.8C281.5,163.2,276.7,165.7,276.9,156.5z"/>
	<path class="st0" d="M302.3,145.5c-1.5,1.4-3.1,2.9-4.6,4.3c-2.6-4.8-3.2-3.3,2.3-8.5C300.7,142.7,301.5,144.1,302.3,145.5z"/>
	<path class="st0" d="M258.5,84.5c7,9.5-16.4,4.1-12,1.4C251.3,83,252.7,81.2,258.5,84.5z"/>
	<path class="st2" d="M253.1,96.7C251.5,96.9,257.1,92.3,253.1,96.7z"/>
	<path class="st0" d="M319.3,81c0.2-0.2,0.5-0.5,0.7-0.7C319.8,80.6,319.6,80.8,319.3,81z"/>
	<path class="st0" d="M259.2,102.1C259.3,104.8,253.2,100.5,259.2,102.1z"/>
	<path class="st1" d="M219.5,209.8C219.5,209.8,219.5,209.9,219.5,209.8C219.5,209.9,219.5,209.8,219.5,209.8z"/>
	<path class="st2" d="M291.5,179c1-0.4,2.1-0.7,3.1-1.1C293.6,178.3,292.6,178.6,291.5,179z"/>
	<path class="st2" d="M298.4,177.9c0.7,0.1,1.4,0.3,2.1,0.4C299.8,178.2,299.1,178.1,298.4,177.9z"/>
</g>
</svg>
